


Format                           : AVI
Format/Info                      : Audio Video Interleave
File size                        : 1.68 GiB
Duration                         : 1h 51mn
Overall bit rate                 : 2 160 Kbps
Writing application              : Nandub v1.0rc2
Writing library                  : VirtualDub build 32839/release

Video
ID                               : 0
Format                           : MPEG-4 Visual
Format profile                   : Advanced Simple@L5
Format settings, BVOP            : Yes
Format settings, QPel            : No
Format settings, GMC             : No warppoints
Format settings, Matrix          : Custom
Codec ID                         : XVID
Codec ID/Hint                    : XviD
Duration                         : 1h 51mn
Bit rate                         : 1 703 Kbps
Width                            : 720 pixels
Height                           : 304 pixels
Display aspect ratio             : 2.35:1
Frame rate                       : 25.000 fps
Color space                      : YUV
Chroma subsampling               : 4:2:0
Bit depth                        : 8 bits
Scan type                        : Progressive
Bits/(Pixel*Frame)               : 0.311
Stream size                      : 1.32 GiB (79%)
Writing library                  : XviD 1.2.1 (UTC 2008-12-04)

Audio
ID                               : 1
Format                           : AC-3
Format/Info                      : Audio Coding 3
Mode extension                   : CM (complete main)
Codec ID                         : 2000
Duration                         : 1h 51mn
Bit rate mode                    : Constant
Bit rate                         : 448 Kbps
Channel(s)                       : 6 channels
Channel positions                : Front: L C R, Side: L R, LFE
Sampling rate                    : 48.0 KHz
Bit depth                        : 16 bits
Stream size                      : 357 MiB (21%)
Alignment                        : Split accross interleaves
Interleave, duration             : 40 ms (1.00 video frame)
Interleave, preload duration     : 500 ms



 
http://www.imdb.com/title/tt1217613/







Users: 6.3/10 (16,984 votes) 411 reviews | Critics: 179 reviews Metascore: 37/100 (based on 35 reviews from Metacritic.com)

A Marine Staff Sergeant who has just had his retirement approved goes back into the line of duty in order to assist a 2nd Lieutenant and his platoon as they fight to reclaim the city of Los Angeles from alien invaders.
Director:
Jonathan Liebesman
Writer:
Christopher Bertolini
Stars:
Aaron Eckhart, Michelle Rodriguez and Bridget Moynahan 







 
http://img829.imageshack.us/img829/1457/vlcsnap2011040606h10m40.png 
http://img33.imageshack.us/img33/2796/vlcsnap2011040606h10m22.png 
http://img823.imageshack.us/img823/8985/vlcsnap2011040606h11m51.png



Sources:

Russian DVD-9
Inoplanetnoe.vtorzhenie.Bitva.za.Los-Andzheles.2011.D.DVD.ELEKTRI4KA.........Thanks
Peeraccess ..................... Thanks




V2 while i had time purely because of the sync issues on the 1st release..........................



Greetz to Imagine ,Flawl3ss,DiLLoN,BDK,NOiR,TOXiCiNK,THC,Ez,Rx,Boobyblue



